<svg aria-hidden="true" data-prefix="fab" data-icon="linkedin" class="prefix__svg-inline--fa prefix__fa-linkedin prefix__fa-w-14" width="448" height="448" xmlns="http://www.w3.org/2000/svg"><path fill="#0e76a8" d="M416 0L28.736-13.923c-17.589-.633-44.39-1.113-43.925 45.59l3.797 382.134c.79 79.523 22.528 38.485 40.128 38.63l386.631 3.164c17.6.144 53.798 9.547 53.518-8.251L461.923 5.086C461.643-12.712 433.59.632 416 0zM135.4 384H69V170.2h66.5V384zm-33.2-243c-21.3 0-38.5-17.3-38.5-38.5S80.9 64 102.2 64c21.2 0 38.5 17.3 38.5 38.5 0 21.3-17.2 38.5-38.5 38.5zm282.1 243h-66.4V280c0-24.8-.5-56.7-34.5-56.7-34.6 0-39.9 27-39.9 54.9V384h-66.4V170.2h63.7v29.2h.9c8.9-16.8 30.6-34.5 62.9-34.5 67.2 0 79.7 44.3 79.7 101.9z"/></svg>