<?xml version="1.0" encoding="UTF-8" standalone="no"?>
<svg
   height="280pt"
   version="1.1"
   viewBox="0 -160 600 280"
   width="600pt"
   id="svg1494"
   sodipodi:docname="switch.svg"
   inkscape:version="1.1 (c68e22c387, 2021-05-23)"
   xmlns:inkscape="http://www.inkscape.org/namespaces/inkscape"
   xmlns:sodipodi="http://sodipodi.sourceforge.net/DTD/sodipodi-0.dtd"
   xmlns="http://www.w3.org/2000/svg"
   xmlns:svg="http://www.w3.org/2000/svg">
  <defs
     id="defs1498" />
  <sodipodi:namedview
     id="namedview1496"
     pagecolor="#ffffff"
     bordercolor="#666666"
     borderopacity="1.0"
     inkscape:pageshadow="2"
     inkscape:pageopacity="0.0"
     inkscape:pagecheckerboard="0"
     inkscape:document-units="pt"
     showgrid="false"
     inkscape:zoom="1.04"
     inkscape:cx="262.01923"
     inkscape:cy="187.01923"
     inkscape:window-width="1920"
     inkscape:window-height="1017"
     inkscape:window-x="-8"
     inkscape:window-y="-8"
     inkscape:window-maximized="1"
     inkscape:current-layer="svg1494"
     fit-margin-top="0"
     fit-margin-left="0"
     fit-margin-right="0"
     fit-margin-bottom="0" />
  <g
     id="surface1"
     transform="translate(0,-160)">
    <path
       d="M 570,0 H 30 C 13.433594,0 0,13.433594 0,30 v 180 c 0,16.56641 13.433594,30 30,30 h 32.191406 l 8.105469,32.42187 C 71.410156,276.875 75.410156,280 80,280 h 40 c 4.58984,0 8.58984,-3.125 9.70312,-7.57813 L 137.80859,240 h 324.38282 l 8.10546,32.42187 C 471.41016,276.875 475.41016,280 480,280 h 40 c 4.58984,0 8.58984,-3.125 9.70312,-7.57813 L 537.80859,240 H 570 c 16.56641,0 30,-13.43359 30,-30 V 30 C 600,13.433594 586.56641,0 570,0 Z M 112.19141,260 H 87.808594 l -5,-20 h 34.382816 z m 400,0 h -24.38282 l -5,-20 h 34.38282 z M 580,210 c 0,5.52344 -4.47656,10 -10,10 H 30 c -5.523438,0 -10,-4.47656 -10,-10 V 30 c 0,-5.523438 4.476562,-10 10,-10 h 540 c 5.52344,0 10,4.476562 10,10 z m 0,0"
       style="fill:#000000;fill-opacity:1;fill-rule:nonzero;stroke:none"
       id="path1477" />
    <path
       d="m 520,40 h 40 v 20 h -40 z m 0,0"
       style="fill:#000000;fill-opacity:1;fill-rule:nonzero;stroke:none"
       id="path1479" />
    <path
       d="m 540,70 c -16.56641,0 -30,13.433594 -30,30 0,16.56641 13.43359,30 30,30 16.56641,0 30,-13.43359 30,-30 0,-16.566406 -13.43359,-30 -30,-30 z m 0,40 c -5.52344,0 -10,-4.47656 -10,-10 0,-5.523438 4.47656,-10 10,-10 5.52344,0 10,4.476562 10,10 0,5.52344 -4.47656,10 -10,10 z m 0,0"
       style="fill:#000000;fill-opacity:1;fill-rule:nonzero;stroke:none"
       id="path1481" />
    <path
       d="M 110,100 H 50 c -5.523438,0 -10,4.47656 -10,10 v 60 c 0,5.52344 4.476562,10 10,10 h 60 c 5.52344,0 10,-4.47656 10,-10 v -60 c 0,-5.52344 -4.47656,-10 -10,-10 z m -10,60 H 60 v -40 h 40 z m 0,0"
       style="fill:#000000;fill-opacity:1;fill-rule:nonzero;stroke:none"
       id="path1483" />
    <path
       d="m 200,100 h -60 c -5.52344,0 -10,4.47656 -10,10 v 60 c 0,5.52344 4.47656,10 10,10 h 60 c 5.52344,0 10,-4.47656 10,-10 v -60 c 0,-5.52344 -4.47656,-10 -10,-10 z m -10,60 h -40 v -40 h 40 z m 0,0"
       style="fill:#000000;fill-opacity:1;fill-rule:nonzero;stroke:none"
       id="path1485" />
    <path
       d="m 290,100 h -60 c -5.52344,0 -10,4.47656 -10,10 v 60 c 0,5.52344 4.47656,10 10,10 h 60 c 5.52344,0 10,-4.47656 10,-10 v -60 c 0,-5.52344 -4.47656,-10 -10,-10 z m -10,60 h -40 v -40 h 40 z m 0,0"
       style="fill:#000000;fill-opacity:1;fill-rule:nonzero;stroke:none"
       id="path1487" />
    <path
       d="m 380,100 h -60 c -5.52344,0 -10,4.47656 -10,10 v 60 c 0,5.52344 4.47656,10 10,10 h 60 c 5.52344,0 10,-4.47656 10,-10 v -60 c 0,-5.52344 -4.47656,-10 -10,-10 z m -10,60 h -40 v -40 h 40 z m 0,0"
       style="fill:#000000;fill-opacity:1;fill-rule:nonzero;stroke:none"
       id="path1489" />
    <path
       d="m 470,100 h -60 c -5.52344,0 -10,4.47656 -10,10 v 60 c 0,5.52344 4.47656,10 10,10 h 60 c 5.52344,0 10,-4.47656 10,-10 v -60 c 0,-5.52344 -4.47656,-10 -10,-10 z m -10,60 h -40 v -40 h 40 z m 0,0"
       style="fill:#000000;fill-opacity:1;fill-rule:nonzero;stroke:none"
       id="path1491" />
  </g>
  <path
     style="fill:#ff0000;fill-rule:evenodd;stroke-width:0.144458"
     d="m 536.10307,-51.319258 c -7.18195,-3.126367 -7.21516,-13.728615 -0.054,-17.252715 3.59718,-1.770225 7.03239,-1.0986 10.46344,2.045723 2.43236,2.22909 2.64618,2.745315 2.64618,6.388702 0,3.232598 -0.33253,4.319535 -1.80289,5.893163 -3.60003,3.85287 -7.05706,4.75152 -11.2527,2.925127 z"
     id="path1574" />
  <path
     style="fill:#666666;fill-rule:evenodd;stroke-width:0.144458"
     d="m 24.808115,57.870407 c -4.961323,-3.17907 -4.672001,3.247748 -4.452796,-98.911395 0.197058,-91.837882 0.201406,-92.079882 1.691136,-94.110582 0.821464,-1.11976 2.60632,-2.60334 3.966347,-3.29683 2.341221,-1.19381 16.91758,-1.2609 273.987198,-1.2609 257.06962,0 271.64597,0.0671 273.9872,1.2609 1.36002,0.69349 3.14488,2.17707 3.96635,3.29683 1.48963,2.03058 1.49409,2.27737 1.69181,93.750005 0.22027,101.906955 0.47805,96.194017 -4.47867,99.257445 l -2.3802,1.471042 -272.87161,-0.01215 C 28.925578,59.302705 27.027851,59.292745 24.808115,57.870407 Z M 114.6122,19.121477 c 1.36002,-0.693495 3.14488,-2.17713 3.96635,-3.296955 1.46043,-1.99089 1.49356,-2.785642 1.49356,-35.824522 0,-33.03888 -0.0331,-33.833633 -1.49356,-35.824523 -3.36027,-4.58076 -3.16662,-4.557847 -38.530473,-4.557847 -35.777172,0 -35.393077,-0.04935 -38.747645,4.972185 l -1.636971,2.4504 V -20 12.959777 l 1.636971,2.450408 c 3.354568,5.021475 2.970473,4.972185 38.747645,4.972185 29.128703,0 32.319633,-0.1164 34.564123,-1.260893 z m 89.75087,0.262995 c 1.31652,-0.550072 3.17208,-2.09154 4.12347,-3.425475 l 1.7298,-2.425342 V -20 -53.533655 l -1.7298,-2.425343 c -3.15048,-4.41726 -3.2235,-4.425615 -38.66746,-4.425615 -34.75451,0 -34.08635,-0.06983 -37.84793,3.95592 l -1.80288,1.92951 v 34.481573 c 0,33.46038 0.0427,34.529587 1.44231,36.10284 0.79326,0.891705 2.41586,2.222632 3.60576,2.957632 2.02176,1.248833 4.27874,1.336538 34.45827,1.339058 25.90886,0.0023 32.76811,-0.195075 34.68846,-0.997448 z m 90.28821,-0.158362 c 1.34275,-0.637185 3.09552,-2.216948 3.89505,-3.510608 1.40286,-2.26989 1.45357,-3.521077 1.45097,-35.80062 -0.003,-31.453634 -0.0835,-33.58101 -1.35716,-35.669722 -2.85881,-4.688108 -2.90925,-4.693815 -39.53861,-4.470502 -31.73125,0.193447 -33.09481,0.257587 -34.94211,1.64361 -4.31989,3.241222 -4.2075,2.207137 -4.2075,38.712832 0,30.293033 0.11543,33.610118 1.22579,35.225265 1.27013,1.847573 3.32625,3.588368 5.24034,4.436693 0.60829,0.269602 15.6603,0.512992 33.44892,0.54087 28.27805,0.04433 32.64978,-0.09491 34.78431,-1.107818 z m 89.57925,0.14529 c 1.07104,-0.557265 2.75865,-1.88148 3.75024,-2.942708 l 1.80288,-1.92951 V -20 -54.499183 l -1.80288,-1.92951 c -3.76287,-4.027147 -3.07934,-3.956017 -38.00505,-3.954802 -36.11203,0.0015 -35.81882,-0.0369 -38.7733,5.04696 -1.41654,2.437492 -1.46684,3.649155 -1.46684,35.336535 0,31.68738 0.0502,32.899042 1.46684,35.336535 2.95448,5.083867 2.66127,5.045707 38.7733,5.04696 26.34354,7.2e-4 32.66692,-0.185918 34.25481,-1.012095 z m 90.27432,-0.249923 c 1.38032,-0.693495 3.2463,-2.36358 4.14664,-3.711292 l 1.63697,-2.450408 V -20 -52.959785 l -1.63697,-2.4504 c -3.35457,-5.021475 -2.97047,-4.972185 -38.74765,-4.972185 -35.36385,0 -35.1702,-0.02295 -38.53047,4.557848 -1.46043,1.990889 -1.49356,2.785642 -1.49356,35.824522 0,33.03888 0.0331,33.833633 1.49356,35.824523 3.36027,4.580759 3.16662,4.557847 38.53047,4.557847 29.11464,0 32.32414,-0.116955 34.60101,-1.260893 z m 76.3012,-50.817652 c 6.82009,-2.517638 12.5051,-7.616663 16.0074,-14.357423 6.24896,-12.027195 3.80846,-26.51664 -6.03403,-35.824365 -4.77422,-4.514835 -10.03914,-7.1073 -16.12387,-7.93944 -13.63925,-1.86528 -26.39691,4.883273 -32.13647,16.999553 -2.15538,4.550032 -2.30274,5.36877 -2.30274,12.793815 0,7.442745 0.14377,8.236237 2.32782,12.847387 6.79529,14.346863 23.27299,21.013613 38.26189,15.480473 z m 9.53048,-78.087485 v -10.45673 h -20.1923 -20.19231 v 10.45673 10.456737 h 20.19231 20.1923 z"
     id="path1687" />
  <path
     style="fill:#ffdd55;fill-rule:evenodd;stroke-width:0.144458"
     d="M 60.576923,-20 V -39.471155 H 80.048077 99.519232 V -20 -0.528845 H 80.048077 60.576923 Z"
     id="path1800" />
  <path
     style="fill:#ffdd55;fill-rule:evenodd;stroke-width:0.144458"
     d="m 150,-20 v -19.471155 h 19.83173 19.83173 V -20 -0.528845 H 169.83173 150 Z"
     id="path1913" />
  <path
     style="fill:#ffdd55;fill-rule:evenodd;stroke-width:0.144458"
     d="m 240.14423,-20 v -19.471155 h 19.83173 19.83173 V -20 -0.528845 h -19.83173 -19.83173 z"
     id="path1952" />
  <path
     style="fill:#ffdd55;fill-rule:evenodd;stroke-width:0.144458"
     d="m 330.28846,-20 v -19.471155 h 19.83173 19.83173 V -20 -0.528845 h -19.83173 -19.83173 z"
     id="path1991" />
  <path
     style="fill:#ffd42a;fill-rule:evenodd;stroke-width:0.144458"
     d="M 420.43269,-20 V -39.471155 H 439.90384 459.375 V -20 -0.528845 h -19.47116 -19.47115 z"
     id="path2030" />
  <path
     style="fill:#ffd42a;fill-rule:evenodd;stroke-width:0.144458"
     d="m 330.28846,-20 v -19.471155 h 19.83173 19.83173 V -20 -0.528845 h -19.83173 -19.83173 z"
     id="path2143" />
  <path
     style="fill:#ffd42a;fill-rule:evenodd;stroke-width:0.144458"
     d="m 240.14423,-20 v -19.471155 h 19.83173 19.83173 V -20 -0.528845 h -19.83173 -19.83173 z"
     id="path2182" />
  <path
     style="fill:#ffd42a;fill-rule:evenodd;stroke-width:0.144458"
     d="m 150,-20 v -19.471155 h 19.83173 19.83173 V -20 -0.528845 H 169.83173 150 Z"
     id="path2338" />
  <path
     style="fill:#ffcc00;fill-rule:evenodd;stroke-width:0.144458"
     d="M 60.576923,-20 V -39.471155 H 80.048077 99.519232 V -20 -0.528845 H 80.048077 60.576923 Z"
     id="path2377" />
  <path
     style="fill:#b3b3b3;fill-rule:evenodd;stroke-width:0.144458"
     d="m 85.90659,90.716042 c -1.239008,-4.947525 -2.252745,-9.32853 -2.252745,-9.735577 0,-0.484455 5.702512,-0.740078 16.509705,-0.740078 h 16.5097 l -1.76618,7.03125 c -0.9714,3.867188 -2.08516,8.248193 -2.475,9.735578 l -0.70882,2.70432 H 99.941287 88.159327 Z"
     id="path2601" />
  <path
     style="fill:#b3b3b3;fill-rule:evenodd;stroke-width:0.144458"
     d="m 487.56793,97.007215 c -0.38985,-1.487385 -1.5036,-5.86839 -2.475,-9.735578 l -1.76619,-7.03125 h 16.50971 c 10.80719,0 16.5097,0.255623 16.5097,0.740078 0,0.407047 -1.01373,4.788052 -2.25274,9.735577 l -2.25274,8.995493 h -11.78196 -11.78197 z"
     id="path2677" />
</svg>
