<?xml
version="1.0" encoding="UTF-8" standalone="no"?>
<svg height="512" class="computer-object" viewBox="0 0 511.741 511.741" width="512" version="1.1" id="svg43" sodipodi:docname="computer.svg" inkscape:version="1.1 (c68e22c387, 2021-05-23)" xmlns:inkscape="http://www.inkscape.org/namespaces/inkscape" xmlns:sodipodi="http://sodipodi.sourceforge.net/DTD/sodipodi-0.dtd" xmlns="http://www.w3.org/2000/svg" xmlns:svg="http://www.w3.org/2000/svg">
    <defs id="defs47"/>
    <sodipodi:namedview id="namedview45" pagecolor="#ffffff" bordercolor="#666666" borderopacity="1.0" inkscape:pageshadow="2" inkscape:pageopacity="0.0" inkscape:pagecheckerboard="0" showgrid="false" inkscape:zoom="1.625" inkscape:cx="318.46154" inkscape:cy="256.30769" inkscape:window-width="1920" inkscape:window-height="1017" inkscape:window-x="-8" inkscape:window-y="-8" inkscape:window-maximized="1" inkscape:current-layer="svg43"/>
    <g id="g100">
        <g id="g60">
            <path d="m240.708 285.414h30.326c4.142 0 7.5-3.358 7.5-7.5s-3.358-7.5-7.5-7.5h-30.326c-4.142 0-7.5 3.358-7.5 7.5s3.357 7.5 7.5 7.5z" id="path58"/>
        </g>
        <g id="g98">
            <path d="m441.607 418.738c-2.042-6.44-7.952-10.767-14.708-10.767h-253.736c-4.142 0-7.5 3.358-7.5 7.5s3.358 7.5 7.5 7.5h253.737c.188 0 .353.121.409.299l23.109 72.913c.023.072.065.207-.063.383-.128.175-.27.175-.346.175h-388.277c-.076 0-.217 0-.346-.175-.128-.176-.086-.311-.063-.383l23.109-72.913c.057-.179.221-.299.409-.299h54.467c4.142 0 7.5-3.358 7.5-7.5s-3.358-7.5-7.5-7.5h-54.466c-6.756 0-12.667 4.327-14.708 10.767l-23.109 72.913c-1.503 4.741-.68 9.762 2.258 13.775s7.476 6.315 12.449 6.315h388.276c4.974 0 9.511-2.302 12.449-6.315s3.761-9.034 2.258-13.775z" id="path66"/>
            <path d="M 453.843,0 H 57.898 C 41.36,0 27.905,13.455 27.905,29.993 v 254.015 c 0,16.538 13.455,29.993 29.993,29.993 h 147.267 c -0.515,15.068 -1.995,40.069 -5.224,54.087 h -32.282 c -4.142,0 -7.5,3.358 -7.5,7.5 0,4.142 3.358,7.5 7.5,7.5 h 176.425 c 4.142,0 7.5,-3.358 7.5,-7.5 0,-4.142 -3.358,-7.5 -7.5,-7.5 h -32.282 c -3.229,-14.018 -4.709,-39.019 -5.224,-54.087 h 147.267 c 16.538,0 29.993,-13.455 29.993,-29.993 V 29.993 C 483.836,13.455 470.381,0 453.843,0 Z M 215.255,368.088 c 3.309,-16.954 4.506,-41.798 4.914,-54.087 h 71.402 c 0.408,12.289 1.605,37.133 4.914,54.087 z m 253.581,-84.08 c 0,8.267 -6.726,14.993 -14.993,14.993 H 57.898 c -8.267,0 -14.993,-6.726 -14.993,-14.993 v -27.181 h 425.932 v 27.181 z M 449.134,96.804 c -1.72825,-11.03883 -14.75473,-8.069027 -15,0 m 0,0 V 241.827 H 77.607 V 50.842 c 0,-1.093 0.889,-1.982 1.982,-1.982 h 352.563 c 1.093,0 1.982,0.889 1.982,1.982 v 45.962 m 0,0 c 1.72825,11.03883 14.75473,8.06903 15,0 m 0,0 V 50.842 c 0,-9.364 -7.618,-16.982 -16.982,-16.982 H 79.589 c -9.364,0 -16.982,7.618 -16.982,16.982 V 241.827 H 42.905 V 29.993 C 42.905,21.726 49.631,15 57.898,15 h 395.945 c 8.267,0 14.993,6.726 14.993,14.993 V 241.827 H 449.134 V 96.804" id="path68"/>
            <path d="m139.309 438.935h-10.177c-4.142 0-7.5 3.358-7.5 7.5s3.358 7.5 7.5 7.5h10.177c4.142 0 7.5-3.358 7.5-7.5s-3.358-7.5-7.5-7.5z" id="path70"/>
            <path d="m169.84 453.935h10.177c4.142 0 7.5-3.358 7.5-7.5s-3.358-7.5-7.5-7.5h-10.177c-4.142 0-7.5 3.358-7.5 7.5s3.358 7.5 7.5 7.5z" id="path72"/>
            <path d="m210.548 453.935h10.177c4.142 0 7.5-3.358 7.5-7.5s-3.358-7.5-7.5-7.5h-10.177c-4.142 0-7.5 3.358-7.5 7.5s3.358 7.5 7.5 7.5z" id="path74"/>
            <path d="m251.257 453.935h10.177c4.142 0 7.5-3.358 7.5-7.5s-3.358-7.5-7.5-7.5h-10.177c-4.142 0-7.5 3.358-7.5 7.5s3.358 7.5 7.5 7.5z" id="path76"/>
            <path d="m291.965 453.935h10.177c4.142 0 7.5-3.358 7.5-7.5s-3.358-7.5-7.5-7.5h-10.177c-4.142 0-7.5 3.358-7.5 7.5s3.358 7.5 7.5 7.5z" id="path78"/>
            <path d="m332.674 453.935h10.177c4.142 0 7.5-3.358 7.5-7.5s-3.358-7.5-7.5-7.5h-10.177c-4.142 0-7.5 3.358-7.5 7.5s3.358 7.5 7.5 7.5z" id="path80"/>
            <path d="m372.433 453.935h10.177c4.142 0 7.5-3.358 7.5-7.5s-3.358-7.5-7.5-7.5h-10.177c-4.142 0-7.5 3.358-7.5 7.5s3.358 7.5 7.5 7.5z" id="path82"/>
            <path d="m139.309 465.778h-10.177c-4.142 0-7.5 3.358-7.5 7.5s3.358 7.5 7.5 7.5h10.177c4.142 0 7.5-3.358 7.5-7.5s-3.358-7.5-7.5-7.5z" id="path84"/>
            <path d="m169.84 480.778h10.177c4.142 0 7.5-3.358 7.5-7.5s-3.358-7.5-7.5-7.5h-10.177c-4.142 0-7.5 3.358-7.5 7.5s3.358 7.5 7.5 7.5z" id="path86"/>
            <path d="m210.548 480.778h10.177c4.142 0 7.5-3.358 7.5-7.5s-3.358-7.5-7.5-7.5h-10.177c-4.142 0-7.5 3.358-7.5 7.5s3.358 7.5 7.5 7.5z" id="path88"/>
            <path d="m251.257 480.778h10.177c4.142 0 7.5-3.358 7.5-7.5s-3.358-7.5-7.5-7.5h-10.177c-4.142 0-7.5 3.358-7.5 7.5s3.358 7.5 7.5 7.5z" id="path90"/>
            <path d="m291.965 480.778h10.177c4.142 0 7.5-3.358 7.5-7.5s-3.358-7.5-7.5-7.5h-10.177c-4.142 0-7.5 3.358-7.5 7.5s3.358 7.5 7.5 7.5z" id="path92"/>
            <path d="m332.674 480.778h10.177c4.142 0 7.5-3.358 7.5-7.5s-3.358-7.5-7.5-7.5h-10.177c-4.142 0-7.5 3.358-7.5 7.5s3.358 7.5 7.5 7.5z" id="path94"/>
            <path d="m372.433 480.778h10.177c4.142 0 7.5-3.358 7.5-7.5s-3.358-7.5-7.5-7.5h-10.177c-4.142 0-7.5 3.358-7.5 7.5s3.358 7.5 7.5 7.5z" id="path96"/>
            <path style="fill:#ff2a2a;fill-rule:evenodd;stroke-width:0.126775" d="m 125.79288,452.78434 c -3.70576,-2.01073 -4.7206,-7.12951 -2.04411,-10.31034 2.27371,-2.70215 5.12461,-3.4441 12.06699,-3.14047 6.77342,0.29625 8.93414,1.35843 10.13854,4.98399 0.93619,2.81816 0.13457,5.52122 -2.28857,7.7171 -1.85983,1.68539 -2.14536,1.73962 -9.03047,1.71508 -5.04869,-0.018 -7.61218,-0.29786 -8.84238,-0.96536 z" id="path8093" transform="scale(0.99949414)"/>
            <path style="fill:#ff2a2a;fill-rule:evenodd;stroke-width:0.126775" d="m 127.4196,480.32907 c -5.88016,-1.80402 -7.08045,-9.51028 -1.96689,-12.62801 1.7425,-1.0624 3.19312,-1.26407 9.10718,-1.26605 6.25992,-0.002 7.22663,0.14872 8.7788,1.36965 2.66873,2.09923 3.65757,4.98875 2.69297,7.86921 -1.31959,3.9405 -3.34444,4.93075 -10.45448,5.11269 -3.38426,0.0866 -7.05517,-0.11927 -8.15758,-0.45749 z" id="path8169" transform="scale(0.99949414)"/>
            <path style="fill:#ff2a2a;fill-rule:evenodd;stroke-width:0.126775" d="m 167.73514,480.16206 c -2.33589,-0.80454 -5.08495,-4.20563 -5.08495,-6.29102 0,-2.16412 2.0095,-5.56458 3.85119,-6.51696 2.51924,-1.30275 14.51319,-1.27561 17.05457,0.0386 2.06592,1.06833 3.77656,3.87356 3.77656,6.19307 0,2.33768 -2.6213,5.72778 -5.08495,6.57632 -1.20625,0.41546 -4.47154,0.75538 -7.25621,0.75538 -2.78467,0 -6.04996,-0.33992 -7.25621,-0.75538 z" id="path8208" transform="scale(0.99949414)"/>
            <path style="fill:#ff2a2a;fill-rule:evenodd;stroke-width:0.126775" d="m 166.29283,452.66447 c -1.84093,-1.14144 -3.64264,-4.27129 -3.64264,-6.32783 0,-0.67911 0.6512,-2.20244 1.44711,-3.38519 2.01072,-2.98797 5.08859,-3.89478 12.22615,-3.60206 6.55351,0.26876 8.54515,1.17259 10.19151,4.62504 1.43622,3.0118 0.30417,6.82883 -2.53954,8.56275 -2.78506,1.69816 -15.00715,1.78614 -17.68259,0.12729 z" id="path8247" transform="scale(0.99949414)"/>
            <path style="fill:#ff2a2a;fill-rule:evenodd;stroke-width:0.126775" d="m 207.83031,453.15477 c -2.35384,-0.95105 -4.04291,-3.74794 -4.04291,-6.69452 0,-2.17531 0.37912,-3.09305 1.91029,-4.62422 2.29416,-2.29417 5.44175,-2.90382 12.79463,-2.47816 4.92638,0.28518 5.20089,0.38389 7.23263,2.6009 3.45301,3.76789 2.70093,8.59869 -1.69238,10.87056 -2.03071,1.05012 -13.82251,1.28697 -16.20226,0.32544 z" id="path8286" transform="scale(0.99949414)"/>
            <path style="fill:#ff2a2a;fill-rule:evenodd;stroke-width:0.126775" d="m 209.01403,480.54294 c -0.78024,-0.15046 -2.27542,-1.13037 -3.32263,-2.17757 -1.55548,-1.55549 -1.904,-2.428 -1.904,-4.76658 0,-2.42483 0.33697,-3.19954 2.20365,-5.06622 l 2.20365,-2.20365 7.97589,0.21008 7.97589,0.21008 1.84518,2.06685 c 3.58637,4.0172 1.63881,10.026 -3.7332,11.51803 -2.27047,0.6306 -10.39343,0.75877 -13.24443,0.20898 z" id="path8325" transform="scale(0.99949414)"/>
            <path style="fill:#ff2a2a;fill-rule:evenodd;stroke-width:0.126775" d="m 249.56546,480.32907 c -2.64438,-0.81129 -5.27374,-3.99313 -5.27374,-6.38185 0,-1.03484 0.43202,-2.71694 0.96003,-3.73802 1.57467,-3.04506 3.8178,-3.77656 11.5808,-3.77656 6.12778,0 7.1047,0.15492 8.652,1.37202 2.66873,2.09923 3.65757,4.98875 2.69297,7.86921 -1.31958,3.9405 -3.34444,4.93075 -10.45448,5.11269 -3.38426,0.0866 -7.05517,-0.11927 -8.15758,-0.45749 z" id="path8364" transform="scale(0.99949414)"/>
            <path style="fill:#ff2a2a;fill-rule:evenodd;stroke-width:0.126775" d="" id="path8403" transform="scale(0.99949414)"/>
            <path style="fill:#ff2a2a;fill-rule:evenodd;stroke-width:0.126775" d="m 288.43869,452.66447 c -1.84093,-1.14144 -3.64264,-4.27129 -3.64264,-6.32783 0,-2.08539 2.74906,-5.48648 5.08496,-6.29102 2.75958,-0.95047 11.96957,-1.04799 14.3349,-0.15179 5.92882,2.24637 6.98297,9.54691 1.83206,12.68793 -2.71398,1.65498 -14.98056,1.71259 -17.60928,0.0827 z" id="path8442" transform="scale(0.99949414)"/>
            <path style="fill:#ff2a2a;fill-rule:evenodd;stroke-width:0.126775" d="m 290.26575,480.33815 c -2.56248,-0.7679 -4.10585,-2.35586 -4.91518,-5.05717 -0.87506,-2.92069 0.45188,-6.14973 3.19241,-7.76861 2.7473,-1.62286 14.78552,-1.54478 17.50499,0.11355 5.35771,3.26713 3.96133,10.94425 -2.31822,12.7452 -2.5912,0.74314 -10.94237,0.7227 -13.464,-0.033 z" id="path8481" transform="scale(0.99949414)"/>
            <path style="fill:#ff2a2a;fill-rule:evenodd;stroke-width:0.126775" d="m 247.93874,452.78434 c -5.47739,-2.972 -4.35879,-10.92237 1.82383,-12.96282 3.37072,-1.11244 13.51013,-0.53366 15.69162,0.89571 4.04845,2.65265 4.17578,8.1639 0.26465,11.4549 -1.79474,1.51017 -2.31406,1.60144 -8.97629,1.57757 -5.01452,-0.018 -7.57526,-0.29876 -8.80381,-0.96536 z" id="path8520" transform="scale(0.99949414)"/>
            <path style="fill:#ff2a2a;fill-rule:evenodd;stroke-width:0.126775" d="m 329.97617,453.18103 c -2.3709,-1.00453 -4.04291,-3.78402 -4.04291,-6.72078 0,-3.65283 2.59565,-6.35082 6.70239,-6.96667 4.54787,-0.68199 12.38347,-0.0206 14.25076,1.2029 3.56718,2.33731 4.16327,7.4333 1.25106,10.69527 l -1.84522,2.06685 -7.48976,0.14436 c -4.11936,0.0794 -8.09121,-0.11047 -8.82632,-0.42193 z" id="path8559" transform="scale(0.99949414)"/>
            <path style="fill:#ff2a2a;fill-rule:evenodd;stroke-width:0.126775" d="m 331.94562,480.60547 c -4.0126,-0.99768 -6.01236,-3.51202 -6.01236,-7.55945 0,-1.79364 0.49243,-2.80223 2.20365,-4.51345 l 2.20365,-2.20365 7.97589,0.21008 7.97589,0.21008 1.84518,2.06685 c 2.6612,2.98088 2.56868,6.33902 -0.25966,9.42528 l -2.10484,2.29678 -6.28082,0.1911 c -3.45445,0.1051 -6.85041,0.0495 -7.54658,-0.12362 z" id="path8635" transform="scale(0.99949414)"/>
            <path style="fill:#ff2a2a;fill-rule:evenodd;stroke-width:0.126775" d="m 371.18418,480.52513 c -6.04314,-1.51308 -7.49087,-8.81263 -2.52286,-12.72047 1.55217,-1.22093 2.51888,-1.37176 8.77879,-1.36965 5.91407,0.002 7.36469,0.20365 9.10719,1.26605 5.26561,3.21044 3.87849,10.92478 -2.27153,12.6329 -2.35497,0.65407 -10.75301,0.77671 -13.09159,0.19117 z" id="path8674" transform="scale(0.99949414)"/>
            <path style="fill:#ff2a2a;fill-rule:evenodd;stroke-width:0.126775" d="m 368.33428,452.03462 c -2.42314,-2.19588 -3.22476,-4.89894 -2.28857,-7.7171 1.2044,-3.62556 3.36512,-4.68774 10.13854,-4.98399 6.94238,-0.30363 9.79328,0.43832 12.06699,3.14047 1.83381,2.17937 2.05687,4.79011 0.64287,7.52447 -1.57863,3.05275 -3.81265,3.77657 -11.65615,3.77657 -6.73045,0 -7.05262,-0.063 -8.90368,-1.74042 z" id="path8713" transform="scale(0.99949414)"/>
            <path style="fill:#b3b3b3;fill-rule:evenodd;stroke-width:0.126775" d="m 52.212609,297.53033 c -3.085547,-1.41543 -5.689245,-3.96585 -7.499965,-7.34651 -1.265936,-2.36353 -1.374167,-3.60504 -1.559324,-17.88715 L 42.954352,256.94932 H 256.00869 469.06303 l -0.20784,15.34735 c -0.19329,14.27159 -0.30319,15.52536 -1.56802,17.88715 -1.81039,3.38052 -4.41411,5.93103 -7.49977,7.34651 -2.43873,1.11871 -9.90875,1.16128 -203.7874,1.16128 -193.878643,0 -201.348666,-0.0426 -203.787391,-1.16128 z M 275.7325,284.42228 c 2.1424,-1.58763 3.7337,-5.67607 3.13606,-8.05729 -0.23533,-0.93763 -1.25254,-2.62818 -2.26047,-3.75676 l -1.83258,-2.05198 -17.93164,-0.1639 c -19.75041,-0.18053 -19.97741,-0.14375 -22.55548,3.65396 -1.70257,2.50802 -1.63121,5.83833 0.18447,8.60941 2.08059,3.17538 3.61981,3.39915 22.27323,3.23813 16.33392,-0.141 17.29098,-0.21518 18.98641,-1.47157 z" id="path8826" transform="scale(0.99949414)"/>
            <path style="fill:#b3b3b3;fill-rule:evenodd;stroke-width:0.126775" d="m 54.213115,297.62214 c -3.294416,-0.34117 -8.882168,-5.67328 -9.793292,-9.34525 -0.34548,-1.39234 -0.776937,-9.01063 -0.958793,-16.92954 L 43.130382,256.94932 H 256.01559 468.9008 l -0.34733,14.39803 c -0.19104,7.91891 -0.6295,15.5372 -0.97438,16.92954 -0.43244,1.74584 -1.65282,3.53099 -3.93214,5.75189 -2.91722,2.84245 -3.70898,3.26886 -6.74672,3.63356 -3.61745,0.4343 -398.485902,0.39488 -402.687115,-0.0402 z M 275.93523,284.4811 c 3.15934,-2.86152 4.12258,-8.22057 1.88056,-10.46259 -0.68595,-0.68595 -1.06065,-1.24718 -0.83265,-1.24718 0.22799,0 -0.0941,-0.562 -0.7157,-1.24889 -1.07477,-1.18761 -2.00989,-1.24854 -19.05875,-1.24181 -10.87666,0.004 -18.67875,0.2686 -19.83588,0.67198 -5.79744,2.021 -5.72987,12.68302 0.0913,14.4133 1.18245,0.35146 9.63594,0.56692 19.57811,0.499 16.51117,-0.11281 17.57579,-0.19078 18.89297,-1.38381 z" id="path9525" transform="scale(0.99949414)"/>
            <path style="fill:#b3b3b3;fill-rule:evenodd;stroke-width:0.126775" d="m 54.213115,297.62505 c -3.296638,-0.34535 -8.883762,-5.67947 -9.791553,-9.34816 -0.344524,-1.39234 -0.78964,-9.01063 -0.989147,-16.92954 L 43.069676,256.94932 H 256 468.93033 l -0.36274,14.39803 c -0.1995,7.91891 -0.63441,15.48215 -0.96646,16.80719 -0.68082,2.71689 -4.21073,6.94734 -7.13329,8.54898 -1.8129,0.99352 -15.70889,1.07032 -202.88564,1.12131 -110.51668,0.0301 -202.032775,-0.0598 -203.369085,-0.19978 z M 275.93511,284.4811 c 3.0434,-2.75629 4.11121,-8.18192 2.0389,-10.3599 -0.59893,-0.62948 -1.40485,-1.6891 -1.79092,-2.35473 -0.66563,-1.14759 -1.64827,-1.21022 -18.9864,-1.21022 -10.05645,0 -19.03269,0.21025 -19.94721,0.46722 -3.73404,1.04925 -5.4789,7.68221 -3.05329,11.60692 0.80251,1.2985 2.12953,2.3947 3.34021,2.75922 1.11458,0.33558 9.79715,0.54937 19.50574,0.48028 16.50717,-0.11748 17.57599,-0.19604 18.89297,-1.38879 z" id="path902" transform="scale(0.99949414)"/>
            <path style="fill:#b3b3b3;fill-rule:evenodd;stroke-width:0.126775" d="m 43.185157,134.01236 0.16713,-107.747835 1.36602,-2.531521 c 1.598404,-2.962178 4.077592,-5.396392 7.177862,-7.047651 2.147956,-1.144039 8.332934,-1.17979 204.103831,-1.17979 195.7709,0 201.95588,0.03575 204.10384,1.17979 3.10027,1.651259 5.57946,4.085473 7.17786,7.047651 l 1.36602,2.531521 0.16713,107.747835 0.16713,107.74784 h -9.48849 -9.48849 l -0.17184,-97.30532 -0.17184,-97.305312 -1.51217,-3.346464 c -1.91526,-4.238486 -6.18532,-8.06143 -10.40341,-9.31407 C 434.95027,33.65887 412.6305,33.542646 256,33.542646 c -156.630485,0 -178.950257,0.116224 -181.745725,0.946388 -4.218097,1.25264 -8.488159,5.075584 -10.403411,9.31407 l -1.512173,3.346464 -0.17184,97.305312 -0.171839,97.30532 h -9.488493 -9.488493 z" id="path941" transform="scale(0.99949414)"/>
        </g>
    </g>
    <path style="fill:#f2f2f2;fill-rule:evenodd;stroke-width:0.123271" d="M 78.305769,145.69231 78.461538,49.538462 H 256 433.53846 l 0.15577,96.153848 0.15577,96.15384 H 256 78.15 Z" id="path1769" transform="scale(0.99949414)"/>
    <text xml:space="preserve" transform="matrix(0.99949414,0,0,0.99949414,94.6567,160.88411)" id="hello-world" style="font-style:normal;font-variant:normal;font-weight:normal;font-stretch:normal;font-size:53.3333px;line-height:1.15;font-family:'Microsoft Tai Le';-inkscape-font-specification:'Microsoft Tai Le';text-align:center;white-space:pre;shape-inside:url(#rect3841);visibility:hidden;fill:#000000;fill-opacity:1;stroke:none" x="143.47655" y="0">
        <tspan x="0" y="0" id="tspan34731">
            <tspan style="font-weight:bold;-inkscape-font-specification:'Microsoft Tai Le Bold'" id="tspan34729">Hello World!</tspan>
        </tspan>
    </text>
</svg>
