<svg xmlns="http://www.w3.org/2000/svg" height="800" width="1200" viewBox="-28.395 -41.496 246.09 248.976"><path d="M121.3 35.26l-60.1 20c-5.7 1.9-8.8 8.1-6.9 13.8 1.9 5.7 8.1 8.8 13.8 6.9l60.1-20c5.7-1.9 8.8-8.1 6.9-13.8-1.9-5.7-8.1-8.8-13.8-6.9zm0-34.7l-60.1 20c-5.7 1.9-8.8 8.1-6.9 13.8 1.9 5.7 8.1 8.8 13.8 6.9l60.1-20c5.7-1.9 8.8-8.1 6.9-13.8-1.9-5.7-8.1-8.8-13.8-6.9zm0 69.4l-60.2 20c-5.7 1.9-8.8 8.1-6.9 13.8 1.9 5.7 8.1 8.8 13.8 6.9l60.1-20c5.7-1.9 8.8-8.1 6.9-13.8-1.8-5.7-8-8.8-13.7-6.9zm-101.2 78.9H7.3v-4.9h13.3v-5.6H0v27h20.8v-5.7H7.3v-5h12.8zm32.6-10.501H60v27h-7.3zm18.4 13.301c.2-9 9.2-10.1 15.2-6.7l.5-5.8c-10.3-3.9-23.2-.4-23.2 12.4-.1 13.1 12.7 16.5 23.3 13.1l-.4-5.9c-6 3.2-15.5 1.9-15.4-7.1zm26.1-6.2c0-3.2 7-3.1 10.7-1.1l.5-5.6c-8.9-2.7-18.7-.6-18.7 7.3 0 9.6 12.6 7.2 12.6 11.5 0 3.9-6.9 3.4-11.7 1.2l-.5 6c7.7 2.3 19.6 2.2 19.6-7.8 0-10.1-12.5-6.7-12.5-11.5zm22.2 0c0-3.2 7-3.1 10.7-1.1l.5-5.6c-8.9-2.7-18.7-.6-18.7 7.3 0 9.6 12.6 7.2 12.6 11.5 0 3.9-6.9 3.4-11.7 1.2l-.6 6c7.7 2.3 19.7 2.2 19.7-7.8 0-10.1-12.5-6.7-12.5-11.5zm54.3-7.1h-9.3v27h6.8v-17.8l9.3 17.8h8.8v-27h-6.7v17.4zm-26.3-.7c-7.6 0-13.4 4.5-13.4 14.2 0 9.4 5.8 14.1 13.4 14.1 7.6 0 13.4-4.8 13.4-14.1.1-9.7-5.7-14.2-13.4-14.2zm0 23c-4.1 0-5.9-4.7-5.9-8.8 0-4.1 1.8-8.8 5.9-8.8 4.1 0 5.9 5 5.9 8.8 0 4.1-1.7 8.8-5.9 8.8zm-104.3-8.6c3.1-.9 4.7-2.9 4.7-6.5 0-5.6-5-7.2-8.6-7.2H26v27h7.2v-10.2c0-.1 1.8 0 2.9 0 1.3 0 2.2.8 2.7 2.1l2.8 8.1h7.8s-3.8-10.5-3.8-10.6c-.8-2-2.4-2.7-2.5-2.7zm-6.1-2.4h-4v-6h4.1c1.9 0 3.3 1.2 3.3 3 .1 2-1.6 3.1-3.4 3z"/></svg>