<?xml version="1.0" encoding="UTF-8" standalone="no"?>
<svg
   height="512"
   viewBox="0 0 512 512"
   width="512"
   version="1.1"
   id="svg2779"
   sodipodi:docname="router.svg"
   inkscape:version="1.1 (c68e22c387, 2021-05-23)"
   xmlns:inkscape="http://www.inkscape.org/namespaces/inkscape"
   xmlns:sodipodi="http://sodipodi.sourceforge.net/DTD/sodipodi-0.dtd"
   xmlns="http://www.w3.org/2000/svg"
   xmlns:svg="http://www.w3.org/2000/svg">
  <defs
     id="defs2783" />
  <sodipodi:namedview
     id="namedview2781"
     pagecolor="#ffffff"
     bordercolor="#666666"
     borderopacity="1.0"
     inkscape:pageshadow="2"
     inkscape:pageopacity="0.0"
     inkscape:pagecheckerboard="0"
     showgrid="false"
     inkscape:zoom="1.625"
     inkscape:cx="223.07692"
     inkscape:cy="256.30769"
     inkscape:window-width="1920"
     inkscape:window-height="1017"
     inkscape:window-x="-8"
     inkscape:window-y="-8"
     inkscape:window-maximized="1"
     inkscape:current-layer="svg2779" />
  <g
     id="g2777">
    <path
       d="m488 368h-40v-24a8 8 0 0 0 -8-8v-304a24 24 0 0 0 -48 0v304a8 8 0 0 0 -8 8v24h-264v-24a8 8 0 0 0 -8-8v-304a24 24 0 0 0 -48 0v304a8 8 0 0 0 -8 8v24h-32a8 8 0 0 0 -8 8v120a8 8 0 0 0 8 8h48a8 8 0 0 0 8-8v-16h352v16a8 8 0 0 0 8 8h48a8 8 0 0 0 8-8v-120a8 8 0 0 0 -8-8zm-80-336a8 8 0 0 1 16 0v304h-16zm-8 320h32v16h-32zm-320-320a8 8 0 0 1 16 0v304h-16zm-8 320h32v16h-32zm-8 136h-32v-8h32zm416 0h-32v-8h32zm0-24h-448v-80h448z"
       id="path2763" />
    <path
       d="m88 424a24 24 0 1 0 -24 24 24.028 24.028 0 0 0 24-24zm-24 8a8 8 0 1 1 8-8 8.009 8.009 0 0 1 -8 8z"
       id="path2765" />
    <path
       d="m120 448a24 24 0 1 0 -24-24 24.028 24.028 0 0 0 24 24zm0-32a8 8 0 1 1 -8 8 8.009 8.009 0 0 1 8-8z"
       id="path2767" />
    <path
       d="m176 448a24 24 0 1 0 -24-24 24.028 24.028 0 0 0 24 24zm0-32a8 8 0 1 1 -8 8 8.009 8.009 0 0 1 8-8z"
       id="path2769" />
    <path
       d="m432 456h32a8 8 0 0 0 8-8v-48a8 8 0 0 0 -8-8h-32a8 8 0 0 0 -8 8v48a8 8 0 0 0 8 8zm8-16v-8h16v8zm16-32v8h-16v-8z"
       id="path2771" />
    <path
       d="m216 432h104a8 8 0 0 0 0-16h-104a8 8 0 0 0 0 16z"
       id="path2773" />
    <path
       d="m352 432h8a8 8 0 0 0 0-16h-8a8 8 0 0 0 0 16z"
       id="path2775" />
  </g>
  <path
     style="fill:#c8beb7;fill-rule:evenodd;stroke-width:0.123271;fill-opacity:1"
     d="m 32,424 v -40 h 224 224 v 40 40 H 256 32 Z m 436.32783,31.0665 C 471.99127,453.17207 472,453.09822 472,424 c 0,-29.09821 -0.009,-29.17207 -3.67217,-31.06651 -2.67305,-1.38229 -37.98261,-1.38229 -40.65566,0 C 424.00873,394.82793 424,394.90179 424,424 c 0,28.95217 0.0195,29.12314 3.5462,31.03668 2.52209,1.36848 38.1426,1.39453 40.78163,0.0299 z M 74.461538,445.90343 c 4.516706,-2.29505 8.900969,-6.62177 11.282266,-11.1342 1.860745,-3.52601 1.948504,-4.01104 1.948504,-10.76923 0,-6.57369 -0.12571,-7.32501 -1.767832,-10.5657 -2.271938,-4.48361 -6.864561,-9.08267 -11.327679,-11.34355 C 71.320363,400.43101 70.587471,400.30769 64,400.30769 c -6.595508,0 -7.317617,0.12191 -10.615175,1.79206 -4.583354,2.32139 -8.670167,6.3936 -11.120638,11.0809 -1.868031,3.57321 -1.956495,4.06241 -1.956495,10.81935 0,6.57768 0.125022,7.32367 1.772214,10.57465 1.922607,3.79454 5.55813,7.83726 9.045694,10.05884 4.246672,2.70514 7.210623,3.3888 13.797477,3.18249 5.29407,-0.16581 6.626723,-0.43303 9.538461,-1.91255 z m 56.307692,-0.19192 c 4.69401,-2.42828 8.52553,-6.24387 10.98795,-10.94228 1.84369,-3.51783 1.93513,-4.02672 1.93513,-10.76923 0,-6.59551 -0.12191,-7.31762 -1.79206,-10.61517 -2.32139,-4.58336 -6.3936,-8.67017 -11.0809,-11.12064 -3.57321,-1.86803 -4.06241,-1.9565 -10.81935,-1.9565 -6.60571,0 -7.31409,0.12009 -10.63879,1.80362 -4.54286,2.30037 -8.94952,6.70704 -11.249899,11.24991 -1.683526,3.32469 -1.803619,4.03307 -1.803619,10.63878 0,6.57919 0.123385,7.31497 1.754345,10.46154 3.072863,5.92842 8.939253,10.95408 15.168733,12.99487 0.84615,0.2772 4.30769,0.42776 7.69231,0.33459 5.49971,-0.15141 6.54632,-0.37245 9.84615,-2.07949 z m 56,0 c 4.69401,-2.42828 8.52553,-6.24387 10.98795,-10.94228 1.84369,-3.51783 1.93513,-4.02672 1.93513,-10.76923 0,-6.59551 -0.12191,-7.31762 -1.79206,-10.61517 -2.32139,-4.58336 -6.3936,-8.67017 -11.0809,-11.12064 -3.57321,-1.86803 -4.06241,-1.9565 -10.81935,-1.9565 -6.60571,0 -7.31409,0.12009 -10.63879,1.80362 -4.54286,2.30037 -8.94952,6.70704 -11.2499,11.24991 -1.68353,3.32469 -1.80362,4.03307 -1.80362,10.63878 0,6.57919 0.12339,7.31497 1.75435,10.46154 3.07286,5.92842 8.93925,10.95408 15.16873,12.99487 0.84615,0.2772 4.30769,0.42776 7.69231,0.33459 5.49971,-0.15141 6.54632,-0.37245 9.84615,-2.07949 z m 137.5586,-14.645 C 326.61992,429.88122 328,427.22547 328,424 c 0,-1.38746 -0.42007,-3.33499 -0.9335,-4.32784 C 325.07847,415.82774 327.84929,416 268,416 c -47.53138,0 -54.75413,0.1197 -56.32783,0.93349 -4.84699,2.50647 -4.9273,11.49802 -0.12597,14.10319 2.57091,1.39496 110.08677,1.4234 112.78163,0.0298 z m 40,0 C 366.61992,429.88122 368,427.22547 368,424 c 0,-1.38746 -0.42007,-3.33499 -0.9335,-4.32784 C 365.54588,416.73159 363.34114,416 356,416 c -4.62666,0 -7.04738,0.27135 -8.32783,0.93349 -4.84699,2.50647 -4.9273,11.49802 -0.12597,14.10319 2.38824,1.29585 14.29251,1.317 16.78163,0.0298 z"
     id="path2859" />
  <path
     style="fill:#1a1a1a;fill-opacity:1;fill-rule:evenodd;stroke-width:0.123271"
     d="m 72,360 v -8 h 16 16 v 8 8 H 88 72 Z"
     id="path6340" />
  <path
     style="fill:#ffcc00;fill-opacity:1;fill-rule:evenodd;stroke-width:0.123271"
     d="m 400,360 v -8 h 16 16 v 8 8 h -16 -16 z"
     id="path6416" />
  <path
     style="fill:#ffd42a;fill-opacity:1;fill-rule:evenodd;stroke-width:0.123271"
     d="m 72,360 v -8 h 16 16 v 8 8 H 88 72 Z"
     id="path6492" />
  <path
     style="fill:#ffd42a;fill-opacity:1;fill-rule:evenodd;stroke-width:0.123271"
     d="m 400,360 v -8 h 16 16 v 8 8 h -16 -16 z"
     id="path6605" />
  <path
     style="fill:#00ff00;fill-opacity:1;fill-rule:evenodd;stroke-width:0.123271"
     d="m 440,412 v -4 h 8 8 v 4 4 h -8 -8 z"
     id="path6644" />
  <path
     style="fill:#ff0000;fill-opacity:1;fill-rule:evenodd;stroke-width:0.123271"
     d="m 440,436 v -4 h 8 8 v 4 4 h -8 -8 z"
     id="path6757" />
  <path
     style="fill:#ffff00;fill-opacity:1;fill-rule:evenodd;stroke-width:0.123271"
     d="m 58.707692,429.29231 c -1.842998,-1.843 -2.092307,-2.47361 -2.092307,-5.29231 0,-4.64155 2.743065,-7.38462 7.384615,-7.38462 2.818703,0 3.44931,0.24931 5.292308,2.09231 1.82888,1.82888 2.092307,2.48487 2.092307,5.21026 0,2.74846 -0.257669,3.37562 -2.174358,5.29231 -1.91669,1.91669 -2.543848,2.17436 -5.292308,2.17436 -2.72539,0 -3.381377,-0.26343 -5.210257,-2.09231 z"
     id="path6907" />
  <path
     style="fill:#ffff00;fill-opacity:1;fill-rule:evenodd;stroke-width:0.123271"
     d="m 114.70769,429.29231 c -1.843,-1.843 -2.09231,-2.47361 -2.09231,-5.29231 0,-4.64155 2.74307,-7.38462 7.38462,-7.38462 2.8187,0 3.44931,0.24931 5.29231,2.09231 1.82888,1.82888 2.09231,2.48487 2.09231,5.21026 0,2.74846 -0.25767,3.37562 -2.17436,5.29231 -1.91669,1.91669 -2.54385,2.17436 -5.29231,2.17436 -2.72539,0 -3.38138,-0.26343 -5.21026,-2.09231 z"
     id="path6983" />
  <path
     style="fill:#ffff00;fill-opacity:1;fill-rule:evenodd;stroke-width:0.123271"
     d="m 170.70769,429.29231 c -1.843,-1.843 -2.09231,-2.47361 -2.09231,-5.29231 0,-4.64155 2.74307,-7.38462 7.38462,-7.38462 2.8187,0 3.44931,0.24931 5.29231,2.09231 1.82888,1.82888 2.09231,2.48487 2.09231,5.21026 0,2.74846 -0.25767,3.37562 -2.17436,5.29231 -1.91669,1.91669 -2.54385,2.17436 -5.29231,2.17436 -2.72539,0 -3.38138,-0.26343 -5.21026,-2.09231 z"
     id="path7022" />
  <path
     style="fill:#b3b3b3;fill-opacity:1;fill-rule:evenodd;stroke-width:0.123271"
     d="m 72,360 v -8 h 16 16 v 8 8 H 88 72 Z"
     id="path7061" />
  <path
     style="fill:#333333;fill-opacity:1;fill-rule:evenodd;stroke-width:0.123271"
     d="m 400,360 v -8 h 16 16 v 8 8 h -16 -16 z"
     id="path7137" />
  <path
     style="fill:#333333;fill-opacity:1;fill-rule:evenodd;stroke-width:0.123271"
     d="m 32,484 v -4 h 16 16 v 4 4 H 48 32 Z"
     id="path7213" />
  <path
     style="fill:#999999;fill-opacity:1;fill-rule:evenodd;stroke-width:0.123271"
     d="m 448,484 v -4 h 16 16 v 4 4 h -16 -16 z"
     id="path7252" />
  <path
     style="fill:#999999;fill-opacity:1;fill-rule:evenodd;stroke-width:0.123271"
     d="m 32,484 v -4 h 16 16 v 4 4 H 48 32 Z"
     id="path7328" />
  <path
     style="fill:#999999;fill-opacity:1;fill-rule:evenodd;stroke-width:0.123271"
     d="m 448,484 v -4 h 16 16 v 4 4 h -16 -16 z"
     id="path7367" />
  <path
     style="fill:#999999;fill-opacity:1;fill-rule:evenodd;stroke-width:0.123271"
     d="m 448,484 v -4 h 16 16 v 4 4 h -16 -16 z"
     id="path7406" />
  <path
     style="fill:#999999;fill-opacity:1;fill-rule:evenodd;stroke-width:0.123271"
     d="m 448,484 v -4 h 16 16 v 4 4 h -16 -16 z"
     id="path7445" />
  <path
     style="fill:#999999;fill-opacity:1;fill-rule:evenodd;stroke-width:0.123271"
     d="m 448,484 v -4 h 16 16 v 4 4 h -16 -16 z"
     id="path7484" />
  <path
     style="fill:#1a1a1a;fill-opacity:1;fill-rule:evenodd;stroke-width:0.123271"
     d="m 400,360 v -8 h 16 16 v 8 8 h -16 -16 z"
     id="path7523" />
  <path
     style="fill:#1a1a1a;fill-opacity:1;fill-rule:evenodd;stroke-width:0.123271"
     d="m 72,360 v -8 h 16 16 v 8 8 H 88 72 Z"
     id="path7599" />
  <path
     style="fill:#cccccc;fill-opacity:1;fill-rule:evenodd;stroke-width:0.123271"
     d="M 80.014681,184.46154 C 80.023435,94.102831 80.258691,31.929294 80.597396,30.461538 81.451813,26.758977 84.166105,24.615385 88,24.615385 c 3.833895,0 6.548186,2.143592 7.402604,5.846153 0.338705,1.467756 0.573961,63.641293 0.582715,154.000002 L 96,336 h -8 -8 z"
     id="path7749" />
  <path
     style="fill:#cccccc;fill-opacity:1;fill-rule:evenodd;stroke-width:0.123271"
     d="m 408.01468,184.46154 c 0.009,-90.358709 0.24401,-152.532246 0.58272,-154.000002 0.85441,-3.702561 3.56871,-5.846153 7.4026,-5.846153 3.83389,0 6.54819,2.143592 7.4026,5.846153 0.33871,1.467756 0.57396,63.641293 0.58272,154.000002 L 424,336 h -8 -8 z"
     id="path7825" />
</svg>
