<?xml version="1.0" encoding="UTF-8" standalone="no"?>
<!-- Generator: Adobe Illustrator 19.0.0, SVG Export Plug-In . SVG Version: 6.00 Build 0)  -->

<svg
   version="1.1"
   id="Capa_1"
   x="0px"
   y="0px"
   viewBox="0 0 480 480"
   style="enable-background:new 0 0 480 480;"
   xml:space="preserve"
   sodipodi:docname="server.svg"
   inkscape:version="1.1 (c68e22c387, 2021-05-23)"
   xmlns:inkscape="http://www.inkscape.org/namespaces/inkscape"
   xmlns:sodipodi="http://sodipodi.sourceforge.net/DTD/sodipodi-0.dtd"
   xmlns="http://www.w3.org/2000/svg"
   xmlns:svg="http://www.w3.org/2000/svg"><defs
   id="defs665" /><sodipodi:namedview
   id="namedview663"
   pagecolor="#ffffff"
   bordercolor="#666666"
   borderopacity="1.0"
   inkscape:pageshadow="2"
   inkscape:pageopacity="0.0"
   inkscape:pagecheckerboard="0"
   showgrid="false"
   inkscape:zoom="1.6854167"
   inkscape:cx="239.70334"
   inkscape:cy="240"
   inkscape:window-width="1920"
   inkscape:window-height="1017"
   inkscape:window-x="-8"
   inkscape:window-y="-8"
   inkscape:window-maximized="1"
   inkscape:current-layer="Capa_1" />
<g
   id="g342">
	<g
   id="g340">
		<path
   d="M456,144c13.255,0,24-10.745,24-24V24c0-13.255-10.745-24-24-24H24C10.745,0,0,10.745,0,24v96c0,13.255,10.745,24,24,24    h24v24H24c-13.255,0-24,10.745-24,24v96c0,13.255,10.745,24,24,24h24v24H24c-13.255,0-24,10.745-24,24v96    c0,13.255,10.745,24,24,24h432c13.255,0,24-10.745,24-24v-96c0-13.255-10.745-24-24-24h-24v-24h24c13.255,0,24-10.745,24-24v-96    c0-13.255-10.745-24-24-24h-24v-24H456z M456,352c4.418,0,8,3.582,8,8v96c0,4.418-3.582,8-8,8H24c-4.418,0-8-3.582-8-8v-96    c0-4.418,3.582-8,8-8H456z M64,336v-24h16v24H64z M96,336v-24h288v24H96z M400,336v-24h16v24H400z M456,184c4.418,0,8,3.582,8,8    v96c0,4.418-3.582,8-8,8H24c-4.418,0-8-3.582-8-8v-96c0-4.418,3.582-8,8-8H456z M64,168v-24h16v24H64z M96,168v-24h288v24H96z     M400,168v-24h16v24H400z M24,128c-4.418,0-8-3.582-8-8V24c0-4.418,3.582-8,8-8h432c4.418,0,8,3.582,8,8v96c0,4.418-3.582,8-8,8    H24z"
   id="path338" />
	</g>
</g>
<g
   id="g348">
	<g
   id="g346">
		<path
   d="M256,64H94.528C90.11,51.503,76.397,44.954,63.901,49.373S44.855,67.503,49.273,80s18.131,19.046,30.627,14.627    C86.735,92.211,92.112,86.835,94.528,80H256c4.418,0,8-3.582,8-8S260.418,64,256,64z M72,80c-4.418,0-8-3.582-8-8s3.582-8,8-8    s8,3.582,8,8S76.418,80,72,80z"
   id="path344" />
	</g>
</g>
<g
   id="g354">
	<g
   id="g352">
		<rect
   x="352"
   y="32"
   width="16"
   height="16"
   id="rect350" />
	</g>
</g>
<g
   id="g360">
	<g
   id="g358">
		<rect
   x="384"
   y="32"
   width="16"
   height="16"
   id="rect356" />
	</g>
</g>
<g
   id="g366">
	<g
   id="g364">
		<rect
   x="416"
   y="32"
   width="16"
   height="16"
   id="rect362" />
	</g>
</g>
<g
   id="g372">
	<g
   id="g370">
		<rect
   x="320"
   y="32"
   width="16"
   height="16"
   id="rect368" />
	</g>
</g>
<g
   id="g378">
	<g
   id="g376">
		<rect
   x="288"
   y="32"
   width="16"
   height="16"
   id="rect374" />
	</g>
</g>
<g
   id="g384">
	<g
   id="g382">
		<rect
   x="352"
   y="64"
   width="16"
   height="16"
   id="rect380" />
	</g>
</g>
<g
   id="g390">
	<g
   id="g388">
		<rect
   x="384"
   y="64"
   width="16"
   height="16"
   id="rect386" />
	</g>
</g>
<g
   id="g396">
	<g
   id="g394">
		<rect
   x="416"
   y="64"
   width="16"
   height="16"
   id="rect392" />
	</g>
</g>
<g
   id="g402">
	<g
   id="g400">
		<rect
   x="320"
   y="64"
   width="16"
   height="16"
   id="rect398" />
	</g>
</g>
<g
   id="g408">
	<g
   id="g406">
		<rect
   x="288"
   y="64"
   width="16"
   height="16"
   id="rect404" />
	</g>
</g>
<g
   id="g414">
	<g
   id="g412">
		<rect
   x="352"
   y="96"
   width="16"
   height="16"
   id="rect410" />
	</g>
</g>
<g
   id="g420">
	<g
   id="g418">
		<rect
   x="384"
   y="96"
   width="16"
   height="16"
   id="rect416" />
	</g>
</g>
<g
   id="g426">
	<g
   id="g424">
		<rect
   x="416"
   y="96"
   width="16"
   height="16"
   id="rect422" />
	</g>
</g>
<g
   id="g432">
	<g
   id="g430">
		<rect
   x="320"
   y="96"
   width="16"
   height="16"
   id="rect428" />
	</g>
</g>
<g
   id="g438">
	<g
   id="g436">
		<rect
   x="288"
   y="96"
   width="16"
   height="16"
   id="rect434" />
	</g>
</g>
<g
   id="g444">
	<g
   id="g442">
		<path
   d="M256,232H94.528c-4.418-12.497-18.131-19.046-30.627-14.627S44.855,235.503,49.273,248s18.131,19.046,30.627,14.627    c6.835-2.416,12.211-7.793,14.627-14.627H256c4.418,0,8-3.582,8-8S260.418,232,256,232z M72,248c-4.418,0-8-3.582-8-8s3.582-8,8-8    s8,3.582,8,8S76.418,248,72,248z"
   id="path440" />
	</g>
</g>
<g
   id="g450">
	<g
   id="g448">
		<rect
   x="352"
   y="200"
   width="16"
   height="16"
   id="rect446" />
	</g>
</g>
<g
   id="g456">
	<g
   id="g454">
		<rect
   x="384"
   y="200"
   width="16"
   height="16"
   id="rect452" />
	</g>
</g>
<g
   id="g462">
	<g
   id="g460">
		<rect
   x="416"
   y="200"
   width="16"
   height="16"
   id="rect458" />
	</g>
</g>
<g
   id="g468">
	<g
   id="g466">
		<rect
   x="320"
   y="200"
   width="16"
   height="16"
   id="rect464" />
	</g>
</g>
<g
   id="g474">
	<g
   id="g472">
		<rect
   x="288"
   y="200"
   width="16"
   height="16"
   id="rect470" />
	</g>
</g>
<g
   id="g480">
	<g
   id="g478">
		<rect
   x="352"
   y="232"
   width="16"
   height="16"
   id="rect476" />
	</g>
</g>
<g
   id="g486">
	<g
   id="g484">
		<rect
   x="384"
   y="232"
   width="16"
   height="16"
   id="rect482" />
	</g>
</g>
<g
   id="g492">
	<g
   id="g490">
		<rect
   x="416"
   y="232"
   width="16"
   height="16"
   id="rect488" />
	</g>
</g>
<g
   id="g498">
	<g
   id="g496">
		<rect
   x="320"
   y="232"
   width="16"
   height="16"
   id="rect494" />
	</g>
</g>
<g
   id="g504">
	<g
   id="g502">
		<rect
   x="288"
   y="232"
   width="16"
   height="16"
   id="rect500" />
	</g>
</g>
<g
   id="g510">
	<g
   id="g508">
		<rect
   x="352"
   y="264"
   width="16"
   height="16"
   id="rect506" />
	</g>
</g>
<g
   id="g516">
	<g
   id="g514">
		<rect
   x="384"
   y="264"
   width="16"
   height="16"
   id="rect512" />
	</g>
</g>
<g
   id="g522">
	<g
   id="g520">
		<rect
   x="416"
   y="264"
   width="16"
   height="16"
   id="rect518" />
	</g>
</g>
<g
   id="g528">
	<g
   id="g526">
		<rect
   x="320"
   y="264"
   width="16"
   height="16"
   id="rect524" />
	</g>
</g>
<g
   id="g534">
	<g
   id="g532">
		<rect
   x="288"
   y="264"
   width="16"
   height="16"
   id="rect530" />
	</g>
</g>
<g
   id="g540">
	<g
   id="g538">
		<path
   d="M256,400H94.528c-4.418-12.497-18.131-19.046-30.627-14.627S44.855,403.503,49.273,416s18.131,19.046,30.627,14.627    c6.835-2.416,12.211-7.793,14.627-14.627H256c4.418,0,8-3.582,8-8S260.418,400,256,400z M72,416c-4.418,0-8-3.582-8-8s3.582-8,8-8    s8,3.582,8,8S76.418,416,72,416z"
   id="path536" />
	</g>
</g>
<g
   id="g546">
	<g
   id="g544">
		<rect
   x="352"
   y="368"
   width="16"
   height="16"
   id="rect542" />
	</g>
</g>
<g
   id="g552">
	<g
   id="g550">
		<rect
   x="384"
   y="368"
   width="16"
   height="16"
   id="rect548" />
	</g>
</g>
<g
   id="g558">
	<g
   id="g556">
		<rect
   x="416"
   y="368"
   width="16"
   height="16"
   id="rect554" />
	</g>
</g>
<g
   id="g564">
	<g
   id="g562">
		<rect
   x="320"
   y="368"
   width="16"
   height="16"
   id="rect560" />
	</g>
</g>
<g
   id="g570">
	<g
   id="g568">
		<rect
   x="288"
   y="368"
   width="16"
   height="16"
   id="rect566" />
	</g>
</g>
<g
   id="g576">
	<g
   id="g574">
		<rect
   x="352"
   y="400"
   width="16"
   height="16"
   id="rect572" />
	</g>
</g>
<g
   id="g582">
	<g
   id="g580">
		<rect
   x="384"
   y="400"
   width="16"
   height="16"
   id="rect578" />
	</g>
</g>
<g
   id="g588">
	<g
   id="g586">
		<rect
   x="416"
   y="400"
   width="16"
   height="16"
   id="rect584" />
	</g>
</g>
<g
   id="g594">
	<g
   id="g592">
		<rect
   x="320"
   y="400"
   width="16"
   height="16"
   id="rect590" />
	</g>
</g>
<g
   id="g600">
	<g
   id="g598">
		<rect
   x="288"
   y="400"
   width="16"
   height="16"
   id="rect596" />
	</g>
</g>
<g
   id="g606">
	<g
   id="g604">
		<rect
   x="352"
   y="432"
   width="16"
   height="16"
   id="rect602" />
	</g>
</g>
<g
   id="g612">
	<g
   id="g610">
		<rect
   x="384"
   y="432"
   width="16"
   height="16"
   id="rect608" />
	</g>
</g>
<g
   id="g618">
	<g
   id="g616">
		<rect
   x="416"
   y="432"
   width="16"
   height="16"
   id="rect614" />
	</g>
</g>
<g
   id="g624">
	<g
   id="g622">
		<rect
   x="320"
   y="432"
   width="16"
   height="16"
   id="rect620" />
	</g>
</g>
<g
   id="g630">
	<g
   id="g628">
		<rect
   x="288"
   y="432"
   width="16"
   height="16"
   id="rect626" />
	</g>
</g>
<g
   id="g632">
</g>
<g
   id="g634">
</g>
<g
   id="g636">
</g>
<g
   id="g638">
</g>
<g
   id="g640">
</g>
<g
   id="g642">
</g>
<g
   id="g644">
</g>
<g
   id="g646">
</g>
<g
   id="g648">
</g>
<g
   id="g650">
</g>
<g
   id="g652">
</g>
<g
   id="g654">
</g>
<g
   id="g656">
</g>
<g
   id="g658">
</g>
<g
   id="g660">
</g>
<path
   style="fill:#fe422c;fill-rule:evenodd;stroke-width:0.118852"
   d="m 67.84245,78.285512 c -2.544356,-1.629991 -3.989727,-5.281952 -3.209238,-8.10865 2.429673,-8.799553 14.87235,-6.95871 14.87235,2.200303 0,2.137802 -0.350449,2.871852 -2.303497,4.8249 -1.978322,1.978321 -2.66932,2.302086 -4.894932,2.293502 -1.573473,-0.0061 -3.32728,-0.481401 -4.464683,-1.210055 z"
   id="path784" /><path
   style="fill:#fe422c;fill-rule:evenodd;stroke-width:0.118852"
   d="m 68.16906,246.52841 c -4.962672,-2.69735 -4.890003,-10.49352 0.12197,-13.08531 5.161071,-2.6689 11.214532,0.87044 11.214532,6.5569 0,5.69128 -6.252296,9.29182 -11.336502,6.52841 z"
   id="path823" /><path
   style="fill:#ff0000;fill-rule:evenodd;stroke-width:0.118852"
   d="m 69.786483,415.30714 c -8.439678,-2.52695 -6.290948,-14.8127 2.590682,-14.8127 3.659652,0 7.128397,3.46874 7.128397,7.12839 0,3.39649 -1.791625,6.1565 -4.77,7.34821 -2.63883,1.05585 -2.562523,1.05067 -4.949079,0.3361 z"
   id="path862" /><path
   style="fill:#ff0000;fill-rule:evenodd;stroke-width:0.118852"
   d="M 69.474609,246.64142 C 66.649945,245.65167 64.969098,243.174 64.969098,240 c 0,-6.7922 8.027853,-9.60884 12.440409,-4.36481 3.018248,3.58698 1.504046,9.06977 -3.027771,10.96329 -2.296984,0.95974 -2.2908,0.95968 -4.907127,0.0429 z"
   id="path975" /><path
   style="fill:#ff0000;fill-rule:evenodd;stroke-width:0.118852"
   d="m 68.162062,78.020418 c -1.71428,-0.93161 -3.490859,-4.15004 -3.487409,-6.31775 0.0034,-2.128143 2.13177,-5.155336 4.377652,-6.226322 4.587163,-2.187466 9.859932,1.391535 9.859932,6.692631 0,2.289325 -0.312298,3.020948 -2.017305,4.725955 -1.688714,1.688714 -2.43771,2.013436 -4.598269,1.99355 -1.419531,-0.01306 -3.280101,-0.403694 -4.134601,-0.868064 z"
   id="path1014" /><path
   style="fill:#c8beb7;fill-rule:evenodd;stroke-width:0.118852"
   d="m 21.014648,126.99132 c -2.340252,-0.94913 -4.29359,-3.98421 -4.686505,-7.28186 C 16.123611,117.99287 16.037306,95.362176 16.136353,69.419036 16.3367,16.943105 16.117099,19.668001 20.331428,17.364802 22.155485,16.367925 32.943397,16.31644 240,16.31644 c 207.0566,0 217.84452,0.05148 219.66857,1.048362 4.21433,2.303199 3.99473,-0.421697 4.19508,52.054234 0.099,25.94314 0.009,48.599884 -0.19903,50.348334 -0.29464,2.47072 -0.82032,3.66042 -2.35946,5.33992 l -1.98034,2.16094 -218.53757,0.11199 C 120.59159,127.44181 21.693922,127.2668 21.014648,126.99132 Z M 304.37577,103.83189 v -8.30655 h -8.30655 -8.30655 v 8.30655 8.30655 h 8.30655 8.30655 z m 32.03956,0 v -8.30655 h -8.30655 -8.30656 v 8.30655 8.30655 h 8.30656 8.30655 z m 32.03955,0 v -8.30655 h -8.30655 -8.30655 v 8.30655 8.30655 h 8.30655 8.30655 z m 32.03956,0 v -8.30655 h -8.30655 -8.30656 v 8.30655 8.30655 h 8.30656 8.30655 z m 32.03955,0 v -8.30655 h -8.30655 -8.30655 v 8.30655 8.30655 h 8.30655 8.30655 z M 78.95288,95.176311 c 6.227339,-1.820969 11.520036,-6.238363 14.48503,-12.089498 l 1.514094,-2.987925 h 81.601676 c 89.01965,0 83.4471,0.215276 86.23695,-3.33145 0.87831,-1.11659 1.23904,-2.432108 1.23904,-4.518578 0,-3.452403 -1.2006,-5.780794 -3.7887,-7.347674 -1.78345,-1.07972 -4.70473,-1.124197 -83.75884,-1.27523 L 94.571172,63.469465 93.818652,61.388414 C 93.404772,60.243836 91.592603,57.71577 89.791618,55.77049 75.900958,40.766923 51.518028,47.988794 47.977662,68.155177 c -2.069746,11.789547 5.196022,23.391372 16.991436,27.131557 3.336234,1.057887 10.173051,1.003894 13.983782,-0.110423 z M 304.37577,71.792336 v -8.306551 h -8.30655 -8.30655 v 8.306551 8.306552 h 8.30655 8.30655 z m 32.03956,0 v -8.306551 h -8.30655 -8.30656 v 8.306551 8.306552 h 8.30656 8.30655 z m 32.03955,0 v -8.306551 h -8.30655 -8.30655 v 8.306551 8.306552 h 8.30655 8.30655 z m 32.03956,0 v -8.306551 h -8.30655 -8.30656 v 8.306551 8.306552 h 8.30656 8.30655 z m 32.03955,0 v -8.306551 h -8.30655 -8.30655 v 8.306551 8.306552 h 8.30655 8.30655 z M 304.37577,39.752781 V 31.44623 h -8.30655 -8.30655 v 8.306551 8.306552 h 8.30655 8.30655 z m 32.03956,0 V 31.44623 h -8.30655 -8.30656 v 8.306551 8.306552 h 8.30656 8.30655 z m 32.03955,0 V 31.44623 h -8.30655 -8.30655 v 8.306551 8.306552 h 8.30655 8.30655 z m 32.03956,0 V 31.44623 h -8.30655 -8.30656 v 8.306551 8.306552 h 8.30656 8.30655 z m 31.90796,0.148331 -0.16507,-8.15822 -8.15822,-0.165074 -8.15822,-0.165075 v 8.323295 8.323295 h 8.32329 8.3233 z"
   id="path1053" /><path
   style="fill:#c8beb7;fill-rule:evenodd;stroke-width:0.118852"
   d="M 20.097585,294.47691 C 19.240255,293.94483 18.038771,292.6837 17.427622,291.6744 16.364979,289.91947 16.31644,287.6622 16.31644,240 c 0,-47.78193 0.04618,-49.91559 1.118739,-51.68719 0.615306,-1.01634 1.857985,-2.28457 2.761508,-2.8183 1.512726,-0.89359 18.91266,-0.97041 219.803313,-0.97041 200.89065,0 218.29058,0.0768 219.80331,0.97041 0.90353,0.53373 2.1462,1.80196 2.76151,2.8183 1.07256,1.7716 1.11874,3.90526 1.11874,51.68719 0,47.78194 -0.0462,49.91559 -1.11874,51.6872 -0.61531,1.01633 -1.85798,2.28456 -2.76151,2.81829 -1.51286,0.89367 -18.902,0.96916 -219.89485,0.95462 -200.715336,-0.0145 -218.377344,-0.0935 -219.810875,-0.9832 z M 304.37577,271.74289 v -8.30655 h -8.30655 -8.30655 v 8.30655 8.30655 h 8.30655 8.30655 z m 32.03956,0 v -8.30655 h -8.30655 -8.30656 v 8.30655 8.30655 h 8.30656 8.30655 z m 32.03955,0 v -8.30655 h -8.30655 -8.30655 v 8.30655 8.30655 h 8.30655 8.30655 z m 32.03956,0 v -8.30655 h -8.30655 -8.30656 v 8.30655 8.30655 h 8.30656 8.30655 z m 31.90796,0.14833 -0.16507,-8.15822 -8.15822,-0.16507 -8.15822,-0.16508 v 8.3233 8.32329 h 8.32329 8.3233 z M 82.608409,261.77962 c 4.466842,-2.19901 9.040578,-6.77245 11.051736,-11.05101 l 1.277951,-2.71872 h 82.242284 82.24229 l 2.3035,-2.3035 c 2.14027,-2.14026 2.3035,-2.54463 2.3035,-5.70639 0,-3.16176 -0.16323,-3.56613 -2.3035,-5.70639 l -2.3035,-2.3035 h -82.1924 -82.1924 l -1.3029,-2.69143 c -2.075897,-4.28823 -6.696528,-8.89741 -11.085657,-11.05817 -4.962405,-2.44298 -12.512798,-3.03458 -17.902475,-1.40272 -6.944857,2.10274 -12.90163,7.66238 -15.598957,14.559 -1.78903,4.57425 -1.78903,12.63217 0,17.20642 1.769793,4.52507 5.170548,8.80495 9.012382,11.34216 5.108514,3.37374 7.724331,4.07652 14.556412,3.91083 5.379278,-0.13046 6.354467,-0.33519 9.891734,-2.07658 z M 304.37577,240 v -8.00989 h -8.30655 -8.30655 V 240 v 8.00989 h 8.30655 8.30655 z m 32.03956,0 v -8.00989 h -8.30655 -8.30656 V 240 v 8.00989 h 8.30656 8.30655 z m 32.03955,0 v -8.00989 h -8.30655 -8.30655 V 240 v 8.00989 h 8.30655 8.30655 z m 32.03956,0 v -8.00989 h -8.30655 -8.30656 V 240 v 8.00989 h 8.30656 8.30655 z m 32.03955,0 v -8.00989 h -8.30655 -8.30655 V 240 v 8.00989 h 8.30655 8.30655 z M 304.37577,208.25711 v -8.30655 h -8.30655 -8.30655 v 8.30655 8.30655 h 8.30655 8.30655 z m 32.03956,0 v -8.30655 h -8.30655 -8.30656 v 8.30655 8.30655 h 8.30656 8.30655 z m 32.03955,0 v -8.30655 h -8.30655 -8.30655 v 8.30655 8.30655 h 8.30655 8.30655 z m 32.03956,0 v -8.30655 h -8.30655 -8.30656 v 8.30655 8.30655 h 8.30656 8.30655 z m 31.90796,-0.14833 0.16508,-8.15822 h -8.3233 -8.32329 v 8.32329 8.3233 l 8.15822,-0.16508 8.15822,-0.16507 z"
   id="path1203" /><path
   style="fill:#c8beb7;fill-rule:evenodd;stroke-width:0.118852"
   d="m 21.656366,463.08816 c -2.790259,-0.9915 -4.192466,-2.53559 -5.025176,-5.53366 -0.767257,-2.76242 -0.809254,-95.54116 -0.04474,-98.83727 0.2961,-1.27659 1.362851,-3.14557 2.370556,-4.15327 l 1.832192,-1.83219 H 240.057 459.3248 l 1.98036,2.16094 c 1.53915,1.6795 2.06482,2.86919 2.35946,5.33992 0.20851,1.74845 0.29808,24.40519 0.19903,50.34833 -0.20035,52.47594 0.0192,49.75104 -4.19508,52.05424 -1.82283,0.99621 -12.7065,1.05452 -218.77858,1.17233 -186.14821,0.10641 -217.196435,0.005 -219.233624,-0.71937 z M 304.37577,440.24722 v -8.30655 h -8.30655 -8.30655 v 8.30655 8.30655 h 8.30655 8.30655 z m 32.03956,0 v -8.30655 h -8.30655 -8.30656 v 8.30655 8.30655 h 8.30656 8.30655 z m 32.03955,0 v -8.30655 h -8.30655 -8.30655 v 8.30655 8.30655 h 8.30655 8.30655 z m 32.03956,0 v -8.30655 h -8.30655 -8.30656 v 8.30655 8.30655 h 8.30656 8.30655 z m 31.90796,-0.14833 0.16508,-8.15822 h -8.3233 -8.32329 v 8.32329 8.3233 l 8.15822,-0.16508 8.15822,-0.16507 z M 75.542608,431.96151 c 7.350241,-1.2038 14.696674,-6.37992 17.653255,-12.43807 l 1.439489,-2.94958 81.878868,-0.17816 c 79.00177,-0.17189 81.94379,-0.21746 83.72675,-1.29689 2.5881,-1.56688 3.7887,-3.89527 3.7887,-7.34767 0,-2.08647 -0.36073,-3.40199 -1.23904,-4.51858 -2.78985,-3.54672 2.7827,-3.33145 -86.23695,-3.33145 H 94.952004 l -1.514094,-2.98793 c -7.351245,-14.50697 -27.477841,-17.58936 -38.819591,-5.94522 -13.243588,13.59669 -6.474385,36.66065 11.932391,40.65593 4.698029,1.01973 4.802884,1.02367 8.991898,0.33762 z M 304.37577,408.20766 v -8.30655 h -8.30655 -8.30655 v 8.30655 8.30656 h 8.30655 8.30655 z m 32.03956,0 v -8.30655 h -8.30655 -8.30656 v 8.30655 8.30656 h 8.30656 8.30655 z m 32.03955,0 v -8.30655 h -8.30655 -8.30655 v 8.30655 8.30656 h 8.30655 8.30655 z m 32.03956,0 v -8.30655 h -8.30655 -8.30656 v 8.30655 8.30656 h 8.30656 8.30655 z m 32.03955,0 v -8.30655 h -8.30655 -8.30655 v 8.30655 8.30656 h 8.30655 8.30655 z M 304.37577,376.16811 v -8.30655 h -8.30655 -8.30655 v 8.30655 8.30655 h 8.30655 8.30655 z m 32.03956,0 v -8.30655 h -8.30655 -8.30656 v 8.30655 8.30655 h 8.30656 8.30655 z m 32.03955,0 v -8.30655 h -8.30655 -8.30655 v 8.30655 8.30655 h 8.30655 8.30655 z m 32.03956,0 v -8.30655 h -8.30655 -8.30656 v 8.30655 8.30655 h 8.30656 8.30655 z m 32.03955,0 v -8.30655 h -8.30655 -8.30655 v 8.30655 8.30655 h 8.30655 8.30655 z"
   id="path1242" /></svg>
